<svg xmlns="http://www.w3.org/2000/svg" width="855" height="240" viewBox="0 0 855 240" fill="none"><path d="M610.905 101.799L607.191 116.829C604.952 114.825 602.005 113.174 598.351 111.878C594.696 110.581 591.042 109.933 587.388 109.933C582.673 109.933 578.37 110.994 574.48 113.115C570.708 115.119 567.702 118.007 565.462 121.78C563.34 125.552 562.279 129.972 562.279 135.041C562.279 140.11 563.399 144.53 565.639 148.302C567.879 152.075 570.944 155.022 574.834 157.143C578.841 159.147 583.498 160.149 588.802 160.149C593.046 160.149 597.172 159.501 601.18 158.204C605.187 156.908 608.665 155.08 611.612 152.723L612.319 167.929C609.136 170.169 605.305 171.937 600.826 173.234C596.347 174.531 591.572 175.179 586.504 175.179C578.841 175.179 571.887 173.588 565.639 170.405C559.509 167.222 554.558 162.625 550.786 156.613C547.014 150.601 545.128 143.41 545.128 135.041C545.128 127.261 546.955 120.365 550.609 114.353C554.264 108.223 559.156 103.449 565.285 100.031C571.533 96.6124 578.429 94.9031 585.973 94.9031C591.278 94.9031 596.052 95.5515 600.296 96.8482C604.657 98.0269 608.193 99.6773 610.905 101.799Z" fill="black"></path><path d="M688.658 173.941H672.921V167.399C669.856 169.639 666.143 171.525 661.781 173.057C657.42 174.472 652.705 175.179 647.636 175.179C638.913 175.179 632.253 173.175 627.655 169.167C623.058 165.041 620.76 159.442 620.76 152.369C620.76 144.471 623.589 138.577 629.247 134.687C634.905 130.679 642.449 128.676 651.88 128.676C655.652 128.676 659.424 129.029 663.196 129.736C667.086 130.444 670.21 131.328 672.567 132.389V125.139C672.567 119.599 670.858 115.591 667.44 113.115C664.139 110.64 659.188 109.402 652.587 109.402C647.99 109.402 643.451 109.992 638.972 111.17C634.492 112.349 630.838 113.823 628.009 115.591L627.302 100.738C630.838 98.8521 634.964 97.4376 639.679 96.4945C644.394 95.4336 649.404 94.9031 654.709 94.9031C665.554 94.9031 673.923 97.2018 679.817 101.799C685.711 106.396 688.658 113.823 688.658 124.078V173.941ZM672.567 157.674V142.998C670.446 141.819 667.793 140.935 664.611 140.346C661.546 139.756 658.481 139.461 655.416 139.461C649.758 139.461 645.337 140.463 642.155 142.467C638.972 144.471 637.38 147.713 637.38 152.192C637.38 156.318 638.736 159.324 641.447 161.21C644.276 162.978 648.049 163.862 652.764 163.862C656.418 163.862 660.072 163.214 663.726 161.917C667.381 160.621 670.328 159.206 672.567 157.674Z" fill="black"></path><path d="M753.704 95.7872L753.173 111.701C752.23 111.347 750.993 111.053 749.46 110.817C747.928 110.463 746.513 110.286 745.216 110.286C741.444 110.286 737.79 111.17 734.254 112.939C730.717 114.589 727.594 116.829 724.882 119.658V173.941H708.261V96.4945L724.882 95.7872V106.22C728.183 102.565 731.778 99.7951 735.668 97.9091C739.676 95.9051 743.743 94.9031 747.869 94.9031C748.93 94.9031 749.991 94.9621 751.051 95.08C752.23 95.1978 753.114 95.4336 753.704 95.7872Z" fill="black"></path><path d="M833.862 61.838V173.941H817.418V168.283C811.288 172.88 803.98 175.179 795.492 175.179C788.891 175.179 782.82 173.646 777.28 170.582C771.858 167.399 767.496 162.861 764.195 156.967C760.895 150.955 759.245 143.882 759.245 135.748C759.245 127.615 760.895 120.483 764.195 114.353C767.614 108.223 772.329 103.449 778.341 100.031C784.471 96.6124 791.484 94.9031 799.382 94.9031C802.683 94.9031 805.866 95.1978 808.931 95.7872C812.113 96.2588 814.942 97.0839 817.418 98.2627V62.7221L833.862 61.838ZM817.418 112.408C815.532 111.465 813.115 110.699 810.168 110.11C807.339 109.52 804.51 109.225 801.681 109.225C796.848 109.225 792.486 110.286 788.596 112.408C784.824 114.412 781.818 117.359 779.579 121.249C777.457 125.139 776.396 129.854 776.396 135.395C776.396 140.699 777.398 145.238 779.402 149.01C781.406 152.782 784.117 155.729 787.536 157.851C791.072 159.855 795.08 160.857 799.559 160.857C806.396 160.857 812.349 158.97 817.418 155.198V112.408Z" fill="black"></path><path d="M510.235 151.756H530.828V172.384H510.235V151.756Z" fill="url(#paint0_linear_1_66)"></path><path d="M261.312 64.5385V176.642H244.867V170.983C238.738 175.581 231.429 177.879 222.942 177.879C216.341 177.879 210.27 176.347 204.729 173.282C199.307 170.099 194.946 165.561 191.645 159.667C188.344 153.655 186.694 146.582 186.694 138.449C186.694 130.315 188.344 123.183 191.645 117.054C195.063 110.924 199.779 106.15 205.79 102.731C211.92 99.3128 218.934 97.6036 226.832 97.6036C230.132 97.6036 233.315 97.8983 236.38 98.4877C239.563 98.9592 242.392 99.7843 244.867 100.963V65.4225L261.312 64.5385ZM244.867 115.109C242.981 114.166 240.565 113.399 237.618 112.81C234.789 112.221 231.96 111.926 229.13 111.926C224.297 111.926 219.936 112.987 216.046 115.109C212.274 117.113 209.268 120.06 207.028 123.95C204.906 127.84 203.845 132.555 203.845 138.095C203.845 143.4 204.847 147.938 206.851 151.71C208.855 155.482 211.566 158.429 214.985 160.551C218.521 162.555 222.529 163.557 227.009 163.557C233.846 163.557 239.799 161.671 244.867 157.899V115.109Z" fill="black"></path><path d="M326.373 98.4877L325.842 114.401C324.899 114.048 323.661 113.753 322.129 113.517C320.596 113.164 319.182 112.987 317.885 112.987C314.113 112.987 310.459 113.871 306.922 115.639C303.386 117.289 300.262 119.529 297.551 122.358V176.642H280.93V99.1949L297.551 98.4877V108.92C300.852 105.266 304.447 102.496 308.337 100.609C312.345 98.6055 316.412 97.6036 320.538 97.6036C321.598 97.6036 322.659 97.6625 323.72 97.7804C324.899 97.8983 325.783 98.134 326.373 98.4877Z" fill="black"></path><path d="M408.266 98.4877V176.642H391.645V168.685C387.401 171.867 383.099 174.225 378.737 175.757C374.493 177.172 370.191 177.879 365.829 177.879C357.578 177.879 350.977 175.64 346.026 171.16C341.193 166.681 338.776 159.667 338.776 150.119V99.1949L355.397 98.4877V146.582C355.397 152.358 356.753 156.602 359.464 159.313C362.293 161.907 366.242 163.203 371.311 163.203C374.611 163.203 378.03 162.555 381.566 161.258C385.103 159.962 388.462 158.193 391.645 155.954V99.1949L408.266 98.4877Z" fill="black"></path><path d="M495.956 96.7195L495.602 110.158H481.633C483.637 111.926 485.17 114.107 486.23 116.7C487.409 119.293 487.999 122.005 487.999 124.834C487.999 132.496 485.346 138.802 480.042 143.753C474.737 148.704 467.488 151.415 458.293 151.887L447.507 163.027C448.804 162.791 450.454 162.614 452.458 162.496C454.462 162.378 456.466 162.26 458.47 162.142C460.592 162.025 462.242 161.966 463.421 161.966C474.502 161.966 482.871 163.911 488.529 167.801C494.305 171.691 497.193 177.467 497.193 185.129C497.193 192.555 494.069 198.626 487.822 203.341C481.692 208.174 471.672 210.591 457.763 210.591C450.101 210.591 442.792 209.825 435.837 208.292C429 206.878 423.46 204.874 419.216 202.28L420.454 187.781C423.165 189.431 426.525 190.905 430.533 192.202C434.54 193.616 439.02 194.736 443.971 195.561C448.922 196.504 453.814 196.976 458.647 196.976C464.659 196.976 469.315 196.445 472.615 195.384C475.916 194.441 478.274 193.086 479.688 191.318C481.103 189.549 481.81 187.604 481.81 185.483C481.81 181.592 480.101 178.881 476.682 177.349C473.382 175.816 467.723 175.05 459.708 175.05C455.582 175.05 451.103 175.227 446.269 175.581C441.436 175.934 437.37 176.465 434.069 177.172V164.972L447.861 151.356C440.081 150.296 434.01 147.29 429.648 142.339C425.287 137.388 423.106 131.553 423.106 124.834C423.106 119.411 424.403 114.696 426.996 110.688C429.707 106.562 433.48 103.38 438.313 101.14C443.146 98.7824 448.863 97.6036 455.464 97.6036C459.943 97.6036 464.069 98.193 467.841 99.3717L495.956 96.7195ZM472.615 124.834C472.615 120.236 471.083 116.523 468.018 113.694C464.953 110.747 460.769 109.274 455.464 109.274C450.159 109.274 445.975 110.747 442.91 113.694C439.963 116.523 438.489 120.236 438.489 124.834C438.489 129.313 439.963 133.026 442.91 135.973C445.975 138.92 450.159 140.394 455.464 140.394C460.769 140.394 464.953 138.979 468.018 136.15C471.083 133.203 472.615 129.431 472.615 124.834Z" fill="black"></path><path d="M147.106 126.488C147.106 128.068 147.051 129.603 146.896 131.16C145.781 146.125 139.247 159.543 129.225 169.505C118.275 180.306 103.23 187.032 86.6074 187.032C84.4661 187.032 82.391 186.9 80.3048 186.657C80.3711 186.624 80.4483 186.613 80.5146 186.591C80.4263 186.624 80.3269 186.646 80.2496 186.657C80.2386 186.657 80.2165 186.69 80.2055 186.657C79.8633 186.657 79.4991 186.624 79.1679 186.569C78.3401 186.469 77.5012 186.359 76.7065 186.204C76.0553 186.105 75.4372 185.983 74.8301 185.862C74.0795 185.729 73.3841 185.575 72.6777 185.398C71.9602 185.243 71.2869 185.055 70.5805 184.879C69.8741 184.691 69.2008 184.47 68.4833 184.26C67.81 184.05 67.1257 183.819 66.4524 183.587C65.2492 183.145 64.0903 182.681 62.9423 182.228C62.7326 182.129 62.5008 182.04 62.2911 181.941C61.695 181.654 61.088 181.389 60.503 181.113C59.8517 180.826 59.2446 180.494 58.6045 180.152C56.717 179.169 54.8957 178.098 53.1186 176.927C51.3526 175.756 49.6638 174.486 48.0302 173.139C44.8072 170.455 41.849 167.396 39.1999 164.116C36.1425 160.25 33.5375 156.009 31.4624 151.437C30.6015 149.504 29.7957 147.505 29.1224 145.429C28.6257 143.949 28.2062 142.436 27.831 140.934C26.6941 136.306 26.098 131.491 26.098 126.532V126.422C26.098 125.406 26.1311 124.423 26.1974 123.396C26.2305 122.567 26.2857 121.728 26.385 120.9C26.4181 120.381 26.4733 119.884 26.5395 119.365C26.5726 118.945 26.6278 118.503 26.6941 118.073C26.8044 117.344 26.9038 116.593 27.0583 115.864C27.2128 115.002 27.3674 114.141 27.5771 113.268C27.7647 112.407 27.9745 111.579 28.1952 110.739C28.4049 109.878 28.6478 109.049 28.9237 108.243C29.1776 107.415 29.4425 106.576 29.7515 105.78C30.0606 104.919 30.4028 104.057 30.767 103.196C30.9216 102.787 31.1092 102.39 31.2858 102.025C31.5397 101.429 31.7825 100.91 32.0585 100.358C32.4558 99.452 32.9194 98.5906 33.383 97.7402C33.8245 96.9671 34.2439 96.205 34.7075 95.432C35.0166 94.8797 35.3588 94.3496 35.723 93.8195C35.5685 95.3657 35.5133 96.9671 35.5133 98.5464C35.5133 103.041 36.01 107.415 36.9482 111.645C37.4449 113.942 38.0851 116.228 38.8909 118.415C39.4097 119.928 40.0057 121.408 40.6238 122.855C41.54 124.953 42.5775 126.985 43.7475 128.962C43.7917 129.017 43.8137 129.073 43.8469 129.128C42.8314 125.03 42.2795 120.811 42.2133 116.427C42.1802 115.985 42.1801 115.565 42.1801 115.135C42.1801 106.675 43.604 98.0715 47.39 90.4842C51.0546 83.195 56.2975 76.9109 60.6023 70.0303C65.7018 61.946 68.9027 53.3647 69.8299 43.8667C70.0176 41.9339 70.0948 39.946 70.0948 37.947C70.0948 36.4119 70.0396 34.8546 69.9072 33.3526C69.8741 32.701 69.8189 32.0605 69.7527 31.4088H69.7637C71.9933 32.1709 72.6115 32.4801 73.6269 32.9219C75.2054 33.5845 76.7506 34.3135 78.2628 35.1086C81.1989 36.6438 83.9804 38.4329 86.6074 40.443C101.564 51.8627 110.295 69.9199 110.295 88.706C110.295 96.3928 108.871 103.748 106.222 110.507C113.308 102.335 117.58 91.699 117.58 80.0474C117.58 78.2583 117.58 76.1709 117.37 74.4811C135.152 84.9621 147.062 104.356 147.062 126.532L147.106 126.488Z" fill="url(#paint1_linear_1_66)"></path><path d="M80.5309 186.58C80.4635 186.614 80.385 186.625 80.3176 186.647H80.2615C80.3513 186.636 80.4523 186.602 80.5309 186.58Z" fill="url(#paint2_linear_1_66)"></path><path d="M80.5309 186.58C80.4635 186.614 80.385 186.625 80.3176 186.647H80.2615C80.3513 186.636 80.4523 186.602 80.5309 186.58Z" fill="url(#paint3_linear_1_66)"></path><path d="M84.0863 168.611C54.2732 159.599 43.8755 129.117 43.8755 129.117C42.86 125.009 42.3081 120.79 42.2419 116.405C42.2088 115.975 42.2088 115.544 42.2088 115.113C42.2088 106.664 43.6327 98.0498 47.4187 90.4625C51.0832 83.1844 56.3262 76.8892 60.642 70.0087C65.7304 61.9243 68.9314 53.343 69.8586 43.845C70.0462 41.9012 70.1345 39.9243 70.1345 37.9253C70.1345 36.3791 70.0683 34.844 69.9469 33.331C69.9138 32.6793 69.8586 32.0388 69.7924 31.3872C69.7924 31.3872 104.021 65.3812 81.4483 101.672C58.8759 137.952 70.8078 163.376 84.0643 168.622L84.0863 168.611Z" fill="url(#paint4_linear_1_66)"></path><path d="M147.088 126.51C147.088 128.089 147.044 129.613 146.9 131.137C145.786 146.102 139.262 159.532 129.218 169.494C118.29 180.284 103.246 187.01 86.6229 187.01C84.4484 187.01 82.4064 186.921 80.3313 186.634C80.2872 186.678 80.243 186.678 80.243 186.634C79.8677 186.634 79.5035 186.634 79.1834 186.546C78.3555 186.458 77.5167 186.358 76.733 186.17C76.0817 186.082 75.4857 185.983 74.8345 185.85C74.0949 185.706 73.3996 185.574 72.7042 185.386C71.9646 185.243 71.3134 185.066 70.618 184.878C69.8785 184.69 69.2272 184.458 68.4877 184.282C67.8365 184.05 67.1411 183.818 66.4457 183.586C65.2426 183.166 64.0836 182.702 62.9688 182.239C62.737 182.15 62.5052 182.051 62.3176 181.963L60.5074 181.123C59.8561 180.847 59.2601 180.472 58.6089 180.151C56.7103 179.179 54.9001 178.108 53.101 176.904C51.346 175.745 49.6792 174.497 48.0567 173.105C44.8116 170.466 41.8534 167.406 39.2154 164.115C36.1579 160.228 33.5199 156.009 31.4779 151.425C30.5948 149.482 29.8111 147.483 29.1158 145.406C28.6522 143.971 28.1886 142.446 27.8243 140.911C26.7095 136.328 26.1135 131.502 26.1135 126.554V126.41C26.1135 125.394 26.1576 124.422 26.2018 123.395C26.2459 122.567 26.2901 121.728 26.3894 120.899C26.4336 120.391 26.4777 119.883 26.5329 119.375C26.5771 118.911 26.6212 118.492 26.7205 118.083C26.8088 117.343 26.9082 116.603 27.0958 115.863C27.2393 114.98 27.3718 114.151 27.6036 113.268C27.7912 112.384 28.023 111.556 28.2107 110.716C28.4424 109.888 28.6742 109.049 28.9502 108.265C29.2261 107.436 29.5021 106.597 29.7891 105.758C30.1092 104.929 30.4403 104.046 30.8045 103.206C30.948 102.787 31.1246 102.378 31.3123 102.003C31.5882 101.45 31.82 100.887 32.096 100.335C32.5154 99.4514 32.979 98.579 33.4426 97.7396C33.862 96.9555 34.2704 96.2155 34.734 95.4203C35.0541 94.8681 35.3852 94.3601 35.7495 93.7968C35.606 95.3761 35.5619 96.9444 35.5619 98.5237C35.5619 103.019 36.0254 107.414 36.9968 111.633C37.4604 113.952 38.1116 116.217 38.9394 118.392C39.4472 119.916 40.0542 121.407 40.6503 122.843C41.5775 124.93 42.6371 126.962 43.7961 128.961C43.8402 129.006 43.8402 129.05 43.8844 129.149C43.8844 129.193 43.8844 129.238 43.9285 129.293C43.9727 129.337 43.9727 129.436 43.9727 129.481C44.2928 130.32 45.1758 132.584 46.7984 135.687C47.1185 136.427 47.4937 137.123 47.9132 137.819C49.7234 141.11 52.1738 144.953 55.4189 148.841C61.2579 156.064 69.6798 163.486 81.2585 167.649L84.1283 168.621C78.8964 166.534 73.8963 161.398 71.1147 153.656C70.2317 151.337 69.6356 148.742 69.2604 145.925C68.4767 140.315 68.7526 133.832 70.5518 126.565C72.4061 119.011 75.872 110.672 81.4351 101.682C85.6516 94.9233 87.8702 88.2526 88.7532 81.8581C88.7973 81.6261 88.7973 81.3942 88.8415 81.1181C89.4486 75.8832 89.1616 70.836 88.2344 66.1091C87.6273 62.9615 86.7553 59.9464 85.7288 57.1191C85.2652 55.7275 84.7133 54.336 84.1063 52.9996C83.455 51.4755 82.7155 50.0398 81.9759 48.604C81.6558 47.9082 81.2806 47.2566 80.9163 46.6161C80.7287 46.34 80.541 45.9645 80.3644 45.6884C80.0885 45.1362 79.7573 44.6281 79.4814 44.109C78.8302 43.093 78.1348 42.0217 77.4394 41.0056C77.2076 40.6301 77.02 40.354 76.7882 40.0337C75.2649 37.7586 73.543 35.5388 71.6997 33.5066C71.5121 33.2747 71.2803 32.9986 71.0485 32.7667C70.6291 32.3028 70.309 31.9384 70.033 31.7064C69.9889 31.6181 69.9447 31.5187 69.8012 31.4303C72.0198 32.1703 72.6711 32.4906 73.6424 32.9102C75.2649 33.606 76.7882 34.3018 78.3224 35.086C81.2364 36.6653 84.0179 38.4213 86.656 40.4092C101.612 51.851 110.31 69.9193 110.31 88.6834C110.31 96.3701 108.919 103.737 106.237 110.507C113.323 102.312 117.628 91.6984 117.628 80.0247C117.628 78.2687 117.628 76.1814 117.396 74.4695C135.178 84.9394 147.077 104.355 147.077 126.543L147.088 126.51Z" fill="url(#paint5_linear_1_66)"></path><path d="M70.1411 136.182C69.5892 142.323 70.2073 148.651 72.6025 154.328C74.9757 159.938 78.8279 165.615 84.0708 168.608C79.5232 167.15 74.8211 165.394 70.6599 162.865C66.4655 160.369 62.5802 157.276 59.1915 153.798C52.2819 146.795 47.5356 138.093 43.871 129.114C45.8799 133.554 48.0654 137.872 50.6593 141.98C53.3084 146.056 56.3327 149.822 59.7545 153.212C63.1762 156.603 67.0284 159.563 71.1897 161.97C73.7836 163.483 76.4878 164.775 79.2694 165.946C75.8145 162.92 73.1323 159.066 71.3111 154.869C68.7503 148.949 68.0991 142.378 68.662 136.049C69.7106 123.249 75.2295 111.432 81.3003 100.476C87.3711 89.6419 89.4352 76.6318 86.8192 64.4059C84.2364 52.2352 78.1325 40.7824 69.7989 31.3728C74.1809 35.9119 77.8455 41.0917 80.925 46.5806C84.0046 52.1027 86.3777 58.0224 87.7354 64.2292C89.1262 70.4029 89.4573 76.8527 88.5632 83.1368C87.7354 89.4652 85.4837 95.5395 82.4924 101.15C76.4768 112.073 71.2669 123.735 70.13 136.171L70.1411 136.182Z" fill="url(#paint6_linear_1_66)"></path><defs><linearGradient id="paint0_linear_1_66" x1="510.235" y1="151.756" x2="525.331" y2="175.831" gradientUnits="userSpaceOnUse"><stop stop-color="#EDA634"></stop><stop offset="1" stop-color="#F06222"></stop></linearGradient><linearGradient id="paint1_linear_1_66" x1="26.098" y1="109.204" x2="147.106" y2="109.204" gradientUnits="userSpaceOnUse"><stop stop-color="#F2D17A"></stop><stop offset="0.53" stop-color="#EDA634"></stop><stop offset="1" stop-color="#F06222"></stop></linearGradient><linearGradient id="paint2_linear_1_66" x1="80.2502" y1="186.614" x2="80.5309" y2="186.614" gradientUnits="userSpaceOnUse"><stop stop-color="#F2D17A"></stop><stop offset="0.53" stop-color="#EDA634"></stop><stop offset="1" stop-color="#F06222"></stop></linearGradient><linearGradient id="paint3_linear_1_66" x1="80.2502" y1="186.614" x2="80.5309" y2="186.614" gradientUnits="userSpaceOnUse"><stop stop-color="#F2D17A"></stop><stop offset="0.53" stop-color="#EDA634"></stop><stop offset="1" stop-color="#F06222"></stop></linearGradient><linearGradient id="paint4_linear_1_66" x1="65.6863" y1="18.1783" x2="65.6863" y2="138.692" gradientUnits="userSpaceOnUse"><stop stop-color="#F2D17A"></stop><stop offset="0.53" stop-color="#EDA634"></stop><stop offset="1" stop-color="#F06222"></stop></linearGradient><linearGradient id="paint5_linear_1_66" x1="65.2647" y1="93.0127" x2="118.091" y2="175.817" gradientUnits="userSpaceOnUse"><stop stop-color="#EDA634"></stop><stop offset="1" stop-color="#F06222"></stop></linearGradient><linearGradient id="paint6_linear_1_66" x1="84.413" y1="119.24" x2="105.798" y2="147.833" gradientUnits="userSpaceOnUse"><stop stop-color="#F2D17A"></stop><stop offset="0.53" stop-color="#EDA634"></stop><stop offset="1" stop-color="#F06222"></stop></linearGradient></defs></svg>